<?xml version="1.0" standalone="no"?>
<!DOCTYPE svg PUBLIC "-//W3C//DTD SVG 20010904//EN"
 "http://www.w3.org/TR/2001/REC-SVG-20010904/DTD/svg10.dtd">
<svg version="1.0" xmlns="http://www.w3.org/2000/svg"
 width="700.000000pt" height="700.000000pt" viewBox="0 0 700.000000 700.000000"
 preserveAspectRatio="xMidYMid meet">
<metadata>
Created by potrace 1.11, written by Peter Selinger 2001-2013
</metadata>
<g transform="translate(0.000000,700.000000) scale(0.100000,-0.100000)"
fill="#000000" stroke="none">
<path d="M3298 6995 c-1 -1 -41 -5 -88 -9 -178 -12 -388 -47 -581 -96 -651
-166 -1252 -528 -1714 -1033 -91 -100 -98 -107 -179 -212 -331 -424 -577 -967
-672 -1480 -9 -49 -17 -97 -19 -105 -2 -9 -6 -43 -10 -75 -4 -33 -9 -69 -11
-80 -18 -98 -25 -571 -11 -715 9 -81 25 -206 33 -255 3 -16 7 -43 9 -59 3 -15
7 -35 9 -45 3 -9 8 -31 11 -49 22 -128 113 -427 183 -604 43 -105 137 -298
189 -386 24 -41 43 -75 43 -77 0 -2 30 -50 67 -107 524 -811 1361 -1374 2303
-1549 57 -10 132 -22 165 -25 33 -3 63 -8 66 -9 15 -10 227 -20 409 -20 187 0
339 7 430 21 144 21 295 48 345 61 33 8 67 16 75 18 100 20 358 107 513 172
117 49 344 162 388 194 15 10 30 19 34 19 12 0 282 184 370 253 160 125 386
341 490 467 21 25 41 47 44 50 18 13 182 236 246 335 247 381 409 783 499
1236 14 70 28 155 32 190 3 35 8 67 10 70 9 16 19 213 19 399 0 187 -7 327
-20 420 -3 19 -7 56 -10 81 -3 25 -7 54 -9 65 -2 10 -11 60 -21 109 -20 106
-46 213 -75 310 -12 39 -23 80 -26 91 -6 34 -97 269 -142 369 -128 288 -315
584 -525 830 -173 203 -403 417 -605 563 -408 294 -863 496 -1340 597 -98 20
-246 43 -392 60 -56 7 -526 16 -532 10z"/>
</g>
</svg>
