<svg xmlns="http://www.w3.org/2000/svg" width="61.906" height="18.656" viewBox="0 0 61.906 18.656">
  <metadata><?xpacket begin="﻿" id="W5M0MpCehiHzreSzNTczkc9d"?>
<x:xmpmeta xmlns:x="adobe:ns:meta/" x:xmptk="Adobe XMP Core 5.6-c138 79.159824, 2016/09/14-01:09:01        ">
   <rdf:RDF xmlns:rdf="http://www.w3.org/1999/02/22-rdf-syntax-ns#">
      <rdf:Description rdf:about=""/>
   </rdf:RDF>
</x:xmpmeta>
                                                                                                    
                                                                                                    
                                                                                                    
                                                                                                    
                                                                                                    
                                                                                                    
                                                                                                    
                                                                                                    
                                                                                                    
                                                                                                    
                                                                                                    
                                                                                                    
                                                                                                    
                                                                                                    
                                                                                                    
                                                                                                    
                                                                                                    
                                                                                                    
                                                                                                    
                                                                                                    
                           
<?xpacket end="w"?></metadata>
<defs>
    <style>
      .cls-1 {
        fill: #fff;
        fill-rule: evenodd;
      }
    </style>
  </defs>
  <path id="Switch" class="cls-1" d="M561.63,6.15a4.741,4.741,0,0,0-5.065,4.68c0,4.416,4.8,4.944,4.8,8.809,0,1.776-.936,3.336-2.9,3.336a2.447,2.447,0,0,1-2.52-2.544,1.978,1.978,0,0,1,2.76-1.9,1.938,1.938,0,0,0,.168-0.768,1.531,1.531,0,0,0-1.584-1.488,3.757,3.757,0,0,0-3.816,3.984,4.524,4.524,0,0,0,4.9,4.56c3.6,0,6.337-2.184,6.337-5.9,0-4.128-5.017-5.088-5.017-8.521,0-1.536.768-2.9,2.257-2.9a1.414,1.414,0,0,1,1.464,1.536,1.974,1.974,0,0,1-1.224,1.9,1.63,1.63,0,0,0,1.392.96,2.109,2.109,0,0,0,1.944-2.352C565.518,7.95,564.366,6.15,561.63,6.15Zm11.975,7.873c-0.792,4.3-1.488,6.865-2.952,8.3a8.152,8.152,0,0,1-.672-3.624,23.91,23.91,0,0,1,.576-4.872,1,1,0,0,0-1.152-1.32c-1.3,0-3.024,1.152-3.024,1.7a0.914,0.914,0,0,0,.36.744,0.655,0.655,0,0,1,.456-0.264,0.26,0.26,0,0,1,.264.36,14.749,14.749,0,0,0-.5,4.08c0,2.808.624,5.688,2.256,5.688,1.272,0,2.856-1.752,4.128-4.632,0.144,2.376.6,4.632,1.848,4.632,2.593,0,6.529-5.88,6.529-11.377,0-1.752-1.008-2.64-1.944-2.664a1.674,1.674,0,0,0-1.608,1.848c1.008,0.456,1.488,1.872,1.488,3.48a8.348,8.348,0,0,1-3.025,6.217,8.471,8.471,0,0,1-.72-3.6,29.106,29.106,0,0,1,.84-5.9,2.078,2.078,0,0,0-1.128-.312A1.9,1.9,0,0,0,573.605,14.023Zm10.679-4.608a1.443,1.443,0,0,0,1.489,1.68,1.95,1.95,0,0,0,1.872-1.68,1.5,1.5,0,0,0-1.536-1.68A1.868,1.868,0,0,0,584.284,9.414ZM582.1,21.967c-0.456,2.184.936,2.856,2.136,2.856a6.318,6.318,0,0,0,4.345-2.376,0.835,0.835,0,0,0,.216-0.528,0.635,0.635,0,0,0-.408-0.576,4.027,4.027,0,0,1-2.52,1.2c-0.624,0-1.008-.432-0.72-1.776l1.464-6.937a1,1,0,0,0-1.152-1.32,4.374,4.374,0,0,0-2.689,1.152,0.876,0.876,0,0,0,0,1.32,0.877,0.877,0,0,1,.48-0.288c0.216,0,.312.216,0.24,0.6Zm11.544-7.945a1.071,1.071,0,0,0,1.009-1.392H592.9l0.672-3.168a2.079,2.079,0,0,0-1.128-.312,1.916,1.916,0,0,0-2.016,1.512L590,12.631h-0.48a1.07,1.07,0,0,0-1.008,1.392h1.2l-1.536,7.249c-0.552,2.64.408,3.552,1.872,3.552a6.783,6.783,0,0,0,4.561-2.376,0.835,0.835,0,0,0,.216-0.528,0.635,0.635,0,0,0-.408-0.576,4.032,4.032,0,0,1-2.521,1.2c-0.624,0-1.008-.432-0.72-1.776l1.416-6.744h1.056ZM605,20.959a0.523,0.523,0,0,0-.6-0.816,7.109,7.109,0,0,1-4.969,2.592c-1.3,0-2.3-.7-2.3-2.592,0-3.456,1.56-6.024,2.9-6.024a0.713,0.713,0,0,1,.888.7,4.281,4.281,0,0,1-.384,1.56,1.467,1.467,0,0,0,.96.336,1.717,1.717,0,0,0,1.681-1.968c0-1.56-.961-2.328-2.9-2.328-3.6,0-6.12,4.416-6.12,8.113,0,2.952,1.824,4.3,4.08,4.3A8.736,8.736,0,0,0,605,20.959Zm5.207-5.736c0.792,0,.744.648,0.576,1.416l-1.008,4.776c-0.6,2.808,1.1,3.408,2.3,3.408,1.344,0,3.313-1.128,3.313-2.808a0.627,0.627,0,0,0-.72-0.648,1.563,1.563,0,0,1-1.345,1.152c-0.48,0-.792-0.528-0.528-1.752l1.008-4.728c0.6-2.832-1.056-3.528-2.256-3.528-1.224,0-2.28.888-3.192,2.184l1.248-5.88a1,1,0,0,0-1.152-1.32c-1.3,0-3.024,1.152-3.024,1.7a0.914,0.914,0,0,0,.36.744c0.384-.456.84-0.312,0.7,0.336l-3.048,14.305a1.66,1.66,0,0,0,1.008.24,1.916,1.916,0,0,0,2.016-1.512l1.512-6.817A2.978,2.978,0,0,1,610.2,15.223Z" transform="translate(-553.469 -6.156)"/>
</svg>
